<svg width="43" height="43" viewBox="0 0 43 43" fill="none" xmlns="http://www.w3.org/2000/svg">
<path d="M21.5 0C9.632 0 0 9.632 0 21.5C0 33.368 9.632 43 21.5 43C33.368 43 43 33.368 43 21.5C43 9.632 33.368 0 21.5 0ZM21.5 8.6C25.6495 8.6 29.025 11.9755 29.025 16.125C29.025 20.2745 25.6495 23.65 21.5 23.65C17.3505 23.65 13.975 20.2745 13.975 16.125C13.975 11.9755 17.3505 8.6 21.5 8.6ZM21.5 38.7C17.1355 38.7 11.9755 36.937 8.299 32.508C12.065 29.5533 16.7133 27.9474 21.5 27.9474C26.2867 27.9474 30.935 29.5533 34.701 32.508C31.0245 36.937 25.8645 38.7 21.5 38.7Z" fill="url(#paint0_linear_92_19)"/>
<defs>
<linearGradient id="paint0_linear_92_19" x1="21.5" y1="0" x2="21.5" y2="43" gradientUnits="userSpaceOnUse">
<stop stop-color="#FFD541"/>
<stop offset="1" stop-color="#FFB341" stop-opacity="0.83"/>
</linearGradient>
</defs>
</svg>
