<svg width="341" height="171" viewBox="0 0 341 171" fill="none" xmlns="http://www.w3.org/2000/svg">
<path d="M199 58L201 51M202 48.5L203 44.5M202 59L206 48.5M204.5 60L207 55M208 53L211 46.5M211.5 45L214 40.5M215 38.5L215.5 38M203.5 42.5L204 41.5M204.5 39.5L205 38.5" stroke="url(#paint0_linear_42_117)"/>
<path d="M207.5 61L213 51.5M209.5 62.5L217.5 52M218.5 50.5L221 47M222 45.5L222.5 44.5M225.5 41V40.5M212 64.5L219.5 55.5M214 66.5C214 66.1 217.667 62.3333 219.5 60.5M220.5 59.5L223.5 56.5M225.5 54.5C225.9 54.5 228.333 52.1667 229.5 51M231 49.5L232 48.5M233.5 47.5L234 47" stroke="url(#paint1_linear_42_117)"/>
<path d="M216 68.5L224.5 61M217.5 70.5L223.5 66M219 73L229.5 67M228.5 63L231 61M232.5 60.5L233.5 59.5M235.5 59L236 58.5M220.5 75.5L232.5 70M235.5 68.5L240.5 66M242.5 65.5L243.5 64.5M183.5 57.5L181.5 50.5M181 48.5L180 44M179.5 42.5C179.5 42.1 179.167 41.6667 179 41.5M181 58.5C181 58.1 178.333 51.6667 177 48.5M178 59.5L176 55M175 53L172 46.5M171.5 45L169 40M175.5 60.5L170.5 51.5M173 62L165.5 51.5M165 50.5C164.6 50.1 162.833 47.6667 162 46.5M161 45.5L160 44.5M171 64L164 55.5M168.5 65.5L163.5 60.5M162.5 59.5L159.5 56.5M157.5 54.5C157.1 54.5 154.667 52.1667 153.5 51M166.5 68L158.5 61M165 70L159 66M163 72L154 67M161.5 75L150.5 69.5M149.5 82L155.5 83C155.9 83 156 83 156 83M155.5 84.5L140.5 84M155.5 86.5H146.5M226 83L232 82M226.5 84.5L241 84M226.5 86.5H236M147.5 68.5L142.5 66M154.5 63L152 61M150.5 60.5H150M187.5 54L184 52M194.5 54L197.5 51.5M191.5 45L188.5 50C189.333 50.6667 191 52.5 191 52.5C191 52.5 191.431 52.9307 191.5 53M191.5 45L194.5 50L191.5 53M191.5 45V53M191 53H191.5" stroke="url(#paint2_linear_42_117)"/>
<mask id="path-4-inside-1_42_117" fill="white">
<path fill-rule="evenodd" clip-rule="evenodd" d="M194.5 83.5907C191.94 84.0609 190 86.3039 190 89C190 91.6961 191.94 93.9391 194.5 94.4093C194.176 94.4689 193.841 94.5 193.5 94.5C190.462 94.5 188 92.0376 188 89C188 85.9624 190.462 83.5 193.5 83.5C193.841 83.5 194.176 83.5311 194.5 83.5907Z"/>
</mask>
<path fill-rule="evenodd" clip-rule="evenodd" d="M194.5 83.5907C191.94 84.0609 190 86.3039 190 89C190 91.6961 191.94 93.9391 194.5 94.4093C194.176 94.4689 193.841 94.5 193.5 94.5C190.462 94.5 188 92.0376 188 89C188 85.9624 190.462 83.5 193.5 83.5C193.841 83.5 194.176 83.5311 194.5 83.5907Z" fill="#FFD541"/>
<path d="M194.5 83.5907L194.681 84.5742L194.681 82.6071L194.5 83.5907ZM194.5 94.4093L194.681 95.3929L194.681 93.4258L194.5 94.4093ZM191 89C191 86.7952 192.587 84.9589 194.681 84.5742L194.319 82.6071C191.293 83.163 189 85.8127 189 89H191ZM194.681 93.4258C192.587 93.0411 191 91.2048 191 89H189C189 92.1873 191.293 94.837 194.319 95.3929L194.681 93.4258ZM194.319 93.4258C194.054 93.4744 193.781 93.5 193.5 93.5V95.5C193.902 95.5 194.297 95.4633 194.681 95.3929L194.319 93.4258ZM193.5 93.5C191.015 93.5 189 91.4853 189 89H187C187 92.5899 189.91 95.5 193.5 95.5V93.5ZM189 89C189 86.5147 191.015 84.5 193.5 84.5V82.5C189.91 82.5 187 85.4101 187 89H189ZM193.5 84.5C193.781 84.5 194.054 84.5256 194.319 84.5742L194.681 82.6071C194.297 82.5367 193.902 82.5 193.5 82.5V84.5Z" fill="url(#paint3_linear_42_117)" mask="url(#path-4-inside-1_42_117)"/>
<path d="M160.5 80H221.5L172.5 116L191.5 57.5L210 115.5L160.5 80Z" stroke="url(#paint4_linear_42_117)"/>
<circle cx="191" cy="89.5" r="32.5" stroke="url(#paint5_linear_42_117)"/>
<circle cx="191" cy="89.5" r="24.5" stroke="url(#paint6_linear_42_117)"/>
<circle cx="191" cy="89.5" r="35.5" stroke="url(#paint7_linear_42_117)"/>
<circle cx="191.5" cy="54" r="1" stroke="url(#paint8_linear_42_117)"/>
<circle cx="191.5" cy="43" r="1" stroke="url(#paint9_linear_42_117)"/>
<path d="M56.388 65.004L54.168 65.744L44.326 51.166H35.298V100.376L43.068 103.04L41.588 106H19.092V103.706L26.048 98.23V51.166H17.242L7.4 65.744L5.18 65.004V46.504L9.176 47.836H52.392L56.388 46.504V65.004ZM97.5459 106H83.4859V99.562L75.1239 106.148C74.1372 106.543 72.9039 106.74 71.4239 106.74C67.1812 106.74 64.0979 105.679 62.1739 103.558C60.2992 101.437 59.3619 98.896 59.3619 95.936C59.3619 94.16 60.0032 92.4087 61.2859 90.682C62.5685 88.9553 64.3939 87.3273 66.7619 85.798H83.4859V81.062C83.4859 77.8553 82.6225 75.586 80.8959 74.254C79.2185 72.922 76.8999 72.256 73.9399 72.256C70.8812 72.256 67.1319 74.106 62.6919 77.806L60.4719 74.994L71.1279 66.558C73.1012 66.1633 75.4692 65.966 78.2319 65.966C82.7212 65.966 86.1992 67.076 88.6659 69.296C91.1325 71.4667 92.3659 74.6487 92.3659 78.842V100.45L99.0259 103.04L97.5459 106ZM73.7919 100.45C76.8012 100.45 80.0325 99.0687 83.4859 96.306V88.832H70.3879C69.7465 89.6213 69.2779 90.4107 68.9819 91.2C68.7352 91.9893 68.6119 92.8527 68.6119 93.79C68.6119 95.6153 69.0805 97.194 70.0179 98.526C70.9552 99.8087 72.2132 100.45 73.7919 100.45ZM131.667 66.04C133.295 66.04 134.725 66.484 135.959 67.372C137.192 68.26 138.154 69.4933 138.845 71.072L133.961 77.214H131.149C130.951 75.9807 130.581 75.1173 130.039 74.624C129.545 74.0813 128.855 73.81 127.967 73.81C126.881 73.81 125.722 74.106 124.489 74.698C123.305 75.2407 121.948 76.3013 120.419 77.88V99.932L130.779 103.114L129.299 106.074H104.953V103.78L111.539 98.6V77.658L104.953 73.81V71.516L117.607 65.3L119.901 74.402L127.597 66.558C128.633 66.1633 129.989 65.966 131.667 65.966V66.04Z" fill="white"/>
<path d="M306.9 106H284.404V103.706L291.36 98.304L285.662 84.614H260.798L254.73 98.6L267.754 103.04L266.274 106H243.778V103.706L250.734 98.23L271.676 50.204L279.372 46.43L300.98 98.526L308.38 103.04L306.9 106ZM273.526 55.31L262.278 81.284H284.33L273.526 55.31ZM335.325 106H312.829V103.706L319.785 98.23V53.386L312.089 50.796L313.569 47.836H336.065V50.13L329.035 55.606V100.376L336.805 103.04L335.325 106Z" fill="white"/>
<defs>
<linearGradient id="paint0_linear_42_117" x1="207.25" y1="38" x2="207.25" y2="60" gradientUnits="userSpaceOnUse">
<stop stop-color="#FFD541"/>
<stop offset="1" stop-color="#FFB341" stop-opacity="0.83"/>
</linearGradient>
<linearGradient id="paint1_linear_42_117" x1="220.75" y1="40.5" x2="220.75" y2="66.5" gradientUnits="userSpaceOnUse">
<stop stop-color="#FFD541"/>
<stop offset="1" stop-color="#FFB341" stop-opacity="0.83"/>
</linearGradient>
<linearGradient id="paint2_linear_42_117" x1="192" y1="40" x2="192" y2="86.5" gradientUnits="userSpaceOnUse">
<stop stop-color="#FFD541"/>
<stop offset="1" stop-color="#FFB341" stop-opacity="0.83"/>
</linearGradient>
<linearGradient id="paint3_linear_42_117" x1="191.25" y1="83.5" x2="191.25" y2="94.5" gradientUnits="userSpaceOnUse">
<stop stop-color="#FFD541"/>
<stop offset="1" stop-color="#FFB341" stop-opacity="0.83"/>
</linearGradient>
<linearGradient id="paint4_linear_42_117" x1="191" y1="57.5" x2="191" y2="116" gradientUnits="userSpaceOnUse">
<stop stop-color="#FFD541"/>
<stop offset="1" stop-color="#FFB341" stop-opacity="0.83"/>
</linearGradient>
<linearGradient id="paint5_linear_42_117" x1="191" y1="56.5" x2="191" y2="122.5" gradientUnits="userSpaceOnUse">
<stop stop-color="#FFD541"/>
<stop offset="1" stop-color="#FFB341" stop-opacity="0.83"/>
</linearGradient>
<linearGradient id="paint6_linear_42_117" x1="191" y1="64.5" x2="191" y2="114.5" gradientUnits="userSpaceOnUse">
<stop stop-color="#FFD541"/>
<stop offset="1" stop-color="#FFB341" stop-opacity="0.83"/>
</linearGradient>
<linearGradient id="paint7_linear_42_117" x1="191" y1="53.5" x2="191" y2="125.5" gradientUnits="userSpaceOnUse">
<stop stop-color="#FFD541"/>
<stop offset="1" stop-color="#FFB341" stop-opacity="0.83"/>
</linearGradient>
<linearGradient id="paint8_linear_42_117" x1="191.5" y1="52.5" x2="191.5" y2="55.5" gradientUnits="userSpaceOnUse">
<stop stop-color="#FFD541"/>
<stop offset="1" stop-color="#FFB341" stop-opacity="0.83"/>
</linearGradient>
<linearGradient id="paint9_linear_42_117" x1="191.5" y1="41.5" x2="191.5" y2="44.5" gradientUnits="userSpaceOnUse">
<stop stop-color="#FFD541"/>
<stop offset="1" stop-color="#FFB341" stop-opacity="0.83"/>
</linearGradient>
</defs>
</svg>
